<svg xmlns="http://www.w3.org/2000/svg" aria-hidden="true" style="position:absolute;width:0;height:0;overflow:hidden"><defs><symbol id="icon-antena" viewBox="0 0 32 32"><path fill="#212121" d="m30.773 22.098-8.443-8.505.937-4.615c.242.094.499.144.758.146h.006a2.159 2.159 0 1 0-2.008-1.435l-4.96.605L8.972.161a.534.534 0 0 0-.377-.16.532.532 0 0 0-.373.155L6.709 1.66a.534.534 0 0 0 0 .754l.814.826a14.943 14.943 0 0 0 2.519 17.663.513.513 0 0 0 .146.098c-.034.18-.051.364-.052.547v6.187h-6.4a2.67 2.67 0 0 0-2.667 2.667v1.067c0 .295.239.533.533.533h24.533a.533.533 0 0 0 .533-.533v-1.067a2.67 2.67 0 0 0-2.667-2.667h-6.4v-2.742a15.09 15.09 0 0 0 3.049.32 14.854 14.854 0 0 0 7.04-1.783l.818.823a.534.534 0 0 0 .377.16.532.532 0 0 0 .373-.155l1.513-1.504a.534.534 0 0 0 0-.754zM23.28 6.233a1.066 1.066 0 1 1 .752 1.822h-.003a1.067 1.067 0 0 1-.747-1.823h-.002zm-1.256 3.505-.598 2.946-1.175-1.182 1.774-1.763zm-.605-.902-1.92 1.909-1.485-1.493 3.405-.415zM24.004 28.8a1.6 1.6 0 0 1 1.6 1.6v.533H2.137V30.4a1.6 1.6 0 0 1 1.6-1.6h20.267zm-7.467-2.133v1.067h-5.333v-1.067h5.333zM11.204 25.6v-4.053c0-1.294 1.196-2.347 2.667-2.347s2.667 1.053 2.667 2.347V25.6h-5.333zm6.4-1.696v-2.357c0-1.882-1.675-3.413-3.733-3.413a3.8 3.8 0 0 0-3.281 1.786A13.87 13.87 0 0 1 8.311 4.033l18.602 18.708a13.818 13.818 0 0 1-9.309 1.163zm11.289-.684L7.836 2.039l.755-.752 7.935 7.98c.004 0 .006.007.01.01l13.115 13.191-.757.752z"/><path fill="#2196F3" d="M13.876 20.267h-.005a1.6 1.6 0 1 0-.004 3.2h.005a1.6 1.6 0 1 0 .004-3.2zm.373 1.978a.534.534 0 0 1-.752-.756.534.534 0 0 1 .373-.155.532.532 0 0 1 .373.911h.005z"/></symbol><symbol id="icon-astronauta" viewBox="0 0 29 32"><path d="M28.361 13.626a2.04 2.04 0 0 0-1.364-.809 2.04 2.04 0 0 0-1.537.404l-1.437 1.102-2.178 1.626-1.558-.621c2.779-1.247 4.721-4.026 4.721-7.253 0-4.387-3.583-7.956-7.988-7.956S9.032 3.688 9.032 8.075c0 1.59.476 3.069 1.285 4.313l-3.172-.028H7.14c-.01 0-.018.005-.027.005a.576.576 0 0 0-.178.036c-.015.005-.03.009-.044.015l-.022.007-3.71 1.832-.001.001-2.173 1.045a.432.432 0 0 0-.072.04 2.044 2.044 0 0 0 .525 3.654 2.038 2.038 0 0 0 1.582-.147l1.593-.847 2.598-1.342 1.557-.009-6.245 6.215-.002.001-1.536 1.53c-.363.361-.562.84-.562 1.351s.2.991.562 1.353c.373.371.863.557 1.353.557s.98-.186 1.354-.557L5.2 25.598l1.998-1.491 1.034 1.029-2.022 2.013-.002.001-1.536 1.53c-.363.361-.562.84-.562 1.351s.2.991.562 1.353c.373.371.864.557 1.354.557s.981-.186 1.354-.557l3.995-3.978.001-.002 1.159-1.148-.004-.004c.007-.007.018-.01.025-.018l5.928-6.493 3.983.567a.611.611 0 0 0 .301-.038c.02-.007.038-.017.057-.027.022-.011.045-.017.066-.031l3.688-2.448c.013-.009.021-.024.034-.034.015-.012.033-.016.046-.029l1.459-1.367a2.041 2.041 0 0 0 .243-2.71zM2.445 17.769a.814.814 0 0 1-.641.059.819.819 0 0 1-.244-1.446l1.507-.725.515 1.506-1.138.605zm4.013-2.097-1.777.918-.504-1.473 2.326-1.148-.045 1.703zm17.327-7.598a6.661 6.661 0 0 1-.687 2.937L18.3 8.832a2.136 2.136 0 0 0-.905-1.593l1.68-5.577c2.729.868 4.71 3.413 4.71 6.412zm-13.528 0c0-3.712 3.034-6.732 6.764-6.732.29 0 .574.024.855.06l-1.643 5.455c-.022-.001-.043-.007-.065-.007-1.185 0-2.149.961-2.149 2.142s.964 2.142 2.149 2.142c.797 0 1.485-.44 1.857-1.084l4.432 2.014a6.761 6.761 0 0 1-5.436 2.743c-3.73 0-6.764-3.02-6.764-6.732zm6.835.918c0 .506-.415.918-.925.918s-.925-.412-.925-.918.415-.918.925-.918.925.412.925.918zM2.829 26.233a.698.698 0 0 1-.98.001.682.682 0 0 1 0-.968l1.104-1.1.977.973-1.1 1.096zm3.688 4.285a.698.698 0 0 1-.981.001.682.682 0 0 1 0-.968l1.105-1.1.977.973-1.101 1.096zm3.995-3.981-.002.001-2.025 2.02-.977-.973 2.023-2.014v-.001l.002-.001a.598.598 0 0 0 .103-.155c.008-.016.023-.029.03-.046.019-.047.022-.098.029-.148.004-.028.016-.054.016-.083 0-.041-.015-.081-.023-.121-.007-.037-.007-.074-.021-.11a.596.596 0 0 0-.105-.158c-.012-.013-.016-.031-.029-.043h-.001l-.001-.002-1.844-1.836c-.02-.02-.045-.028-.067-.044a.596.596 0 0 0-.1-.066.522.522 0 0 0-.107-.037.587.587 0 0 0-.118-.023.585.585 0 0 0-.11.006.596.596 0 0 0-.119.023.533.533 0 0 0-.108.051c-.023.013-.048.017-.07.033l-2.035 1.519L3.819 23.3l2.753-2.738 5.004 4.921-1.064 1.055zm7.825-8.052c-.018-.002-.034.004-.052.003a.65.65 0 0 0-.233.032.646.646 0 0 0-.206.124c-.015.013-.032.019-.046.034l-5.391 5.905-4.967-4.885 3.251-3.234a.613.613 0 0 0-.436-1.045v-.001l-2.546.015.032-1.845 3.562.031a7.973 7.973 0 0 0 5.716 2.411c.502 0 .992-.052 1.468-.141.046.037.091.074.149.097l2.765 1.102.175.87.204 1.016-3.446-.49zm4.637.205-.359-1.788 1.66-1.239 1.086 1.442-2.387 1.585zm4.308-3.249-.962.901-1.069-1.419.954-.731a.84.84 0 0 1 .623-.164.82.82 0 0 1 .453 1.413z"/></symbol><symbol id="icon-diagrama" viewBox="0 0 32 32"><path fill="#2196F3" d="M14.926 14.965h1.066v4.798h-1.066v-4.797zM19.19 17.097h1.066v2.665H19.19v-2.665zM10.661 18.696h1.066v1.066h-1.066v-1.066zM7.463 18.163h1.066v1.599H7.463v-1.599z"/><path d="M1.599 28.291h25.587a1.6 1.6 0 0 0 1.599-1.599V24.56a1.6 1.6 0 0 0-1.599-1.599h-.533V9.668L29.681 6.8a1.608 1.608 0 1 0-.746-.763L26.654 8.2V6.97a1.6 1.6 0 0 0-1.599-1.599H3.733A1.6 1.6 0 0 0 2.134 6.97v15.992h-.533a1.6 1.6 0 0 0-1.599 1.599v2.132a1.6 1.6 0 0 0 1.599 1.599zM30.384 4.837a.533.533 0 1 1 0 1.067.533.533 0 0 1 0-1.067zM3.198 6.969c0-.294.239-.533.533-.533h21.322c.294 0 .533.239.533.533v2.239l-1.066 1.013V8.035a.533.533 0 0 0-.533-.533H4.797a.533.533 0 0 0-.533.533v13.326c0 .294.239.533.533.533h19.19a.533.533 0 0 0 .533-.533v-9.674l1.066-1.01v12.284H3.198V6.969zm4.798 6.93a1.598 1.598 0 1 0 1.107 2.749l1.853.93a.532.532 0 0 0 .636-.123l3.939-4.431 3.872 2.901a.533.533 0 0 0 .686-.039l3.365-3.188v8.131H5.33V8.569h18.124v2.66l-3.771 3.572-3.904-2.927a.533.533 0 0 0-.718.072l-3.993 4.493-1.493-.746c.011-.064.018-.129.02-.193a1.6 1.6 0 0 0-1.599-1.599zm.533 1.599a.533.533 0 1 1-1.067 0 .533.533 0 0 1 1.067 0zm3.198 8.529h5.331v.533a.533.533 0 0 1-.533.533h-4.264a.533.533 0 0 1-.533-.533v-.533zm-10.661.533c0-.294.239-.533.533-.533h9.062v.533a1.6 1.6 0 0 0 1.599 1.599h4.264a1.6 1.6 0 0 0 1.599-1.599v-.533h9.062c.294 0 .533.239.533.533v2.132a.533.533 0 0 1-.533.533H1.598a.533.533 0 0 1-.533-.533V24.56z"/></symbol><symbol id="icon-reloj" viewBox="0 0 31 32"><path d="M29.317 13.732C29.315 6.147 23.165-.001 15.579 0S1.846 6.152 1.847 13.738a13.734 13.734 0 0 0 9.557 13.081.603.603 0 0 0 .475-.058.573.573 0 0 0 .254-.32l3.469-10.994a1.717 1.717 0 0 0-.018-3.434c-.255.001-.507.06-.736.172l-4.582-4.583a.572.572 0 0 0-.809.809l4.58 4.585a1.684 1.684 0 0 0 .481 2.072l-3.305 10.476c-6.531-2.406-9.876-9.651-7.47-16.182s9.651-9.876 16.182-7.47 9.876 9.651 7.47 16.182a12.603 12.603 0 0 1-6.697 7.156l-.357-1.682a.571.571 0 0 0-.94-.308l-3.443 3.074a.573.573 0 0 0 .207.973l4.396 1.403a.572.572 0 0 0 .735-.664l-.351-1.65a13.69 13.69 0 0 0 8.372-12.644zm-13.734-.572a.572.572 0 1 1 0 1.144.572.572 0 0 1 0-1.144zm1.885 13.339 1.96-1.748.541 2.549-2.501-.801z"/><path fill="#2196F3" d="M15.01 2.858v1.145a.572.572 0 1 0 1.144 0V2.858a.572.572 0 1 0-1.144 0zM4.709 13.16a.572.572 0 1 0 0 1.144h1.145a.572.572 0 1 0 0-1.144H4.709zM26.456 14.304a.572.572 0 1 0 0-1.144h-1.145a.572.572 0 1 0 0 1.144h1.145z"/></symbol><symbol id="icon-facebook" viewBox="0 0 18 32"><path d="M13.329 5.313h2.921V.225C15.746.156 14.013 0 11.994 0 7.782 0 4.897 2.649 4.897 7.519V12H.249v5.688h4.648V32h5.699V17.689h4.46l.708-5.688h-5.169V8.082c.001-1.644.444-2.769 2.735-2.769z"/></symbol><symbol id="icon-company1" viewBox="0 0 64 32"><path d="m22.943 4.279 4.231 4.005-7.854-.005v19.434h20.528v-7.43l4.226 4.001V4.279H22.942zm16.72 15.534L27.666 8.456h11.997v11.357zm-3.725 5.058H22.569v-13.07h.945v12.185h12.424v.885zm-10.212 5.43-.494 1.017-.494-1.017h-.414l.721 1.356v.79h.374v-.79l.719-1.356h-.413zm.621 2.146.174-.5h.831l.175.5h.389l-.812-2.146h-.335l-.811 2.146h.388zm.589-1.69.311.89h-.622l.311-.89zm1.967.838a.488.488 0 0 0-.081.273c0 .181.063.328.19.441.128.112.298.168.51.168s.395-.057.548-.172l.121.143h.416l-.315-.373c.124-.169.186-.386.186-.65h-.311c0 .144-.03.276-.09.394l-.414-.489.146-.106c.103-.075.177-.149.223-.224s.068-.158.068-.248a.44.44 0 0 0-.15-.34.541.541 0 0 0-.383-.139c-.173 0-.311.049-.413.147s-.153.23-.153.398c0 .069.016.14.049.214s.092.163.175.268a1.277 1.277 0 0 0-.32.296zm.968.475a.544.544 0 0 1-.339.121c-.107 0-.193-.031-.256-.093s-.096-.142-.096-.242c0-.115.059-.217.177-.307l.046-.032.469.553zm-.385-.951c-.101-.125-.152-.228-.152-.311 0-.072.021-.131.062-.178s.097-.071.167-.071c.065 0 .118.02.161.06s.063.087.063.143c0 .084-.03.154-.091.208l-.046.037-.164.112zm3.494 1.166a.783.783 0 0 0 .254-.537h-.371c-.02.153-.066.263-.14.329s-.184.099-.33.099c-.16 0-.282-.061-.366-.183s-.124-.299-.124-.531v-.19c.002-.229.046-.402.133-.52a.435.435 0 0 1 .374-.178c.14 0 .245.034.317.103.073.068.118.179.136.333h.371c-.024-.235-.108-.417-.252-.545s-.335-.193-.572-.193a.871.871 0 0 0-.466.125c-.134.084-.236.202-.308.357s-.108.333-.108.535v.201c.003.198.04.371.111.52s.171.265.301.346a.843.843 0 0 0 .453.121c.245 0 .441-.064.588-.192zm2.192-.301c.073-.159.109-.344.109-.554v-.119c-.001-.209-.038-.393-.112-.55a.829.829 0 0 0-.778-.49.86.86 0 0 0-.466.128c-.135.084-.239.207-.314.367s-.111.345-.111.554v.121c.001.205.038.387.112.544s.18.279.315.364a.873.873 0 0 0 .466.127.855.855 0 0 0 .466-.127.828.828 0 0 0 .313-.366zm-.4-1.213c.09.127.136.309.136.547v.112c0 .242-.045.426-.134.551s-.215.189-.38.189c-.163 0-.291-.064-.383-.193s-.137-.311-.137-.547v-.124c.002-.231.048-.409.139-.535a.44.44 0 0 1 .379-.19.44.44 0 0 1 .382.19z"/></symbol><symbol id="icon-company2" viewBox="0 0 26 32"><path d="M10.953 1.934h-.087c-.134-.008-.269-.011-.403-.015h-.291c-.254 0-.513.006-.771.02a.561.561 0 0 0-.058 0 18.087 18.087 0 0 0-6.73 1.717l-.277.133v14.17l.648-.22a24.909 24.909 0 0 1 1.8-.534 21.939 21.939 0 0 1 5.181-.688v1.862c-.232.002-.457.008-.682.02H9.23c-1.345.074-2.68.279-3.986.612a20.281 20.281 0 0 0-4.749 1.85V2.687A19.031 19.031 0 0 1 5.477.661a19.071 19.071 0 0 1 4.695-.605h.274c.327.008.646.023.946.046.789.055 1.572.18 2.339.373v1.833a14.444 14.444 0 0 0-2.267-.342l-.046-.004c-.158-.013-.316-.027-.464-.027zm3.225 1.873c.406.031.827.046 1.253.046a20.147 20.147 0 0 0 4.936-.633 20.36 20.36 0 0 0 4.747-1.852v17.85a19.066 19.066 0 0 1-4.983 2.026 19.166 19.166 0 0 1-4.695.604 14.3 14.3 0 0 1-3.562-.42V3.462c.275.063.559.122.847.171.473.08.971.138 1.457.174zm9.084.138-.648.218c-.596.2-1.196.379-1.8.539a21.895 21.895 0 0 1-5.38.69c-.423 0-.811-.011-1.187-.036l-.516-.034v14.577l.444.039c.411.036.835.054 1.263.054a17.212 17.212 0 0 0 4.237-.548 17.722 17.722 0 0 0 3.311-1.19l.277-.133V3.946zM1.752 27.072a.96.96 0 0 0-.72-.292 1.079 1.079 0 0 0-.416.078.944.944 0 0 0-.533.539 1.043 1.043 0 0 0-.074.402v2.428c-.006.171.027.341.096.498a.97.97 0 0 0 .243.325.847.847 0 0 0 .334.173c.118.033.24.05.363.05a1.02 1.02 0 0 0 1.006-1.023v-.272h-.635v.216a.568.568 0 0 1-.037.216.399.399 0 0 1-.092.137.464.464 0 0 1-.266.093.33.33 0 0 1-.298-.13.574.574 0 0 1-.084-.325v-2.264a.772.772 0 0 1 .078-.363.328.328 0 0 1 .311-.146c.055-.002.109.009.158.033s.092.059.125.103a.515.515 0 0 1 .105.326v.21h.628v-.247a1.147 1.147 0 0 0-.078-.425 1.012 1.012 0 0 0-.212-.342zM5.522 27.044a1.131 1.131 0 0 0-.722-.267 1.143 1.143 0 0 0-.379.068 1 1 0 0 0-.581.539 1.133 1.133 0 0 0-.092.47v2.329a1.13 1.13 0 0 0 .092.477.947.947 0 0 0 .246.326.99.99 0 0 0 .335.205 1.09 1.09 0 0 0 1.101-.205 1.004 1.004 0 0 0 .332-.803v-2.329a1.13 1.13 0 0 0-.092-.47 1.04 1.04 0 0 0-.24-.34zm-.296 3.139a.422.422 0 0 1-.126.337.468.468 0 0 1-.598 0 .417.417 0 0 1-.126-.337v-2.329a.422.422 0 0 1 .126-.337.468.468 0 0 1 .598 0 .417.417 0 0 1 .126.337v2.329zM10.475 31.223v-4.409h-.61l-.801 2.334h-.011l-.808-2.334h-.604v4.409h.63v-2.682h.011l.617 1.896h.314l.622-1.896h.011v2.682h.63zM14.053 27.124a.868.868 0 0 0-.356-.241 1.388 1.388 0 0 0-.457-.068h-.936v4.409h.628v-1.722h.324a1.15 1.15 0 0 0 .567-.12.915.915 0 0 0 .345-.337 1.04 1.04 0 0 0 .144-.384c.025-.166.036-.334.034-.501a2.52 2.52 0 0 0-.062-.63.935.935 0 0 0-.232-.405zm-.324 1.344a.566.566 0 0 1-.058.229.357.357 0 0 1-.162.155.63.63 0 0 1-.296.055h-.287v-1.499h.324a.597.597 0 0 1 .283.055.348.348 0 0 1 .147.163.649.649 0 0 1 .055.246v.293c0 .103.006.208 0 .303h-.006zM17.029 26.815h-.515l-.971 4.409h.628l.185-.947h.856l.185.947h.628l-.996-4.409zm-.58 2.861.309-1.598h.011l.308 1.598h-.628zM21.088 29.471h-.011l-.949-2.656h-.604v4.409h.628v-2.651h.013l.96 2.651h.591v-4.409h-.628v2.656zM24.926 26.815l-.505 1.753h-.013l-.505-1.753h-.665l.863 2.545v1.863h.628V29.36l.863-2.545h-.665z"/></symbol><symbol id="icon-company3" viewBox="0 0 34 32"><path d="M5.643 31.382a.095.095 0 0 1 .064.025l.166.159a1.373 1.373 0 0 1-.467.302c-.21.076-.435.113-.663.108a1.767 1.767 0 0 1-.623-.101 1.37 1.37 0 0 1-.469-.285 1.268 1.268 0 0 1-.303-.44 1.472 1.472 0 0 1-.106-.565 1.31 1.31 0 0 1 .436-1.007c.142-.124.312-.222.499-.287.205-.069.422-.103.642-.101.204-.004.407.027.596.092.165.062.316.148.447.254l-.139.17a.173.173 0 0 1-.035.031.097.097 0 0 1-.056.013.136.136 0 0 1-.06-.018l-.075-.045-.104-.058a1.3 1.3 0 0 0-.139-.056 1.46 1.46 0 0 0-.436-.063 1.328 1.328 0 0 0-.461.076c-.136.048-.26.121-.361.213a.987.987 0 0 0-.235.339 1.155 1.155 0 0 0-.085.448 1.17 1.17 0 0 0 .085.455.994.994 0 0 0 .231.338.938.938 0 0 0 .345.209c.136.049.281.073.428.072.085.001.17-.004.253-.014a1.01 1.01 0 0 0 .548-.233.127.127 0 0 1 .079-.029zM10.441 30.583c.003.192-.035.382-.112.561-.068.163-.174.311-.313.436s-.306.222-.491.286a2.02 2.02 0 0 1-1.263 0 1.454 1.454 0 0 1-.488-.287 1.297 1.297 0 0 1-.316-.44 1.462 1.462 0 0 1 0-1.125c.071-.164.178-.314.316-.442.139-.12.305-.214.488-.276a1.992 1.992 0 0 1 1.263 0c.185.065.351.163.49.287.137.125.243.273.314.435.077.181.115.372.112.565zm-.436 0a1.186 1.186 0 0 0-.079-.451.933.933 0 0 0-.573-.551 1.456 1.456 0 0 0-.918 0 .985.985 0 0 0-.351.213.897.897 0 0 0-.224.338 1.319 1.319 0 0 0 0 .902.926.926 0 0 0 .575.549 1.5 1.5 0 0 0 .918 0 .98.98 0 0 0 .351-.211.933.933 0 0 0 .222-.338c.056-.145.082-.298.079-.451zM13.715 31.057l.044.101c.017-.036.031-.069.048-.101a.95.95 0 0 1 .054-.099l1.062-1.677c.021-.029.039-.047.06-.052a.283.283 0 0 1 .087-.009h.314v2.727h-.372v-2.09a.737.737 0 0 1 0-.094l-1.068 1.7c-.014.025-.035.047-.062.062s-.059.023-.091.023h-.06c-.032 0-.064-.007-.091-.022s-.049-.037-.062-.062l-1.099-1.711v2.189h-.359V29.22h.314a.318.318 0 0 1 .087.009c.026.011.046.03.058.052l1.084 1.678a.662.662 0 0 1 .054.097zM17.71 30.921v1.021h-.415v-2.723h.926a1.95 1.95 0 0 1 .517.06c.134.033.259.091.366.17a.713.713 0 0 1 .208.267.825.825 0 0 1 .071.348.771.771 0 0 1-.301.621 1.062 1.062 0 0 1-.368.18 1.757 1.757 0 0 1-.501.063l-.503-.007zm0-.292h.503c.109.001.218-.013.322-.042a.71.71 0 0 0 .233-.117.526.526 0 0 0 .191-.409c.005-.076-.009-.151-.042-.222s-.082-.134-.145-.186a.889.889 0 0 0-.559-.146h-.503v1.123zM23.294 31.946h-.328a.158.158 0 0 1-.091-.025.17.17 0 0 1-.054-.063l-.282-.659H21.12l-.293.659a.152.152 0 0 1-.145.088h-.328l1.246-2.727h.432l1.263 2.727zm-2.057-1.012h1.172l-.494-1.11a1.746 1.746 0 0 1-.093-.256l-.048.143a1.404 1.404 0 0 1-.046.116l-.49 1.108zM25.089 29.232a.178.178 0 0 1 .062.049l1.818 2.056V29.22h.372v2.727h-.208a.204.204 0 0 1-.085-.016.221.221 0 0 1-.066-.05l-1.816-2.054a.737.737 0 0 1 0 .094v2.027h-.372v-2.727h.22a.191.191 0 0 1 .075.013zM30.402 30.862v1.083h-.415v-1.083l-1.149-1.642h.372a.15.15 0 0 1 .089.023.23.23 0 0 1 .056.061l.719 1.059a1.064 1.064 0 0 1 .127.242l.054-.117a.912.912 0 0 1 .071-.125l.708-1.067a.295.295 0 0 1 .054-.058.14.14 0 0 1 .089-.027h.376l-1.151 1.65zM13.51 24.642c.181.02.364.036.548.05 2.803-1.089 5.174-2.872 6.817-5.126s2.485-4.878 2.421-7.546l-3.089-2.684c.628 2.84.334 5.776-.848 8.479s-3.208 5.067-5.849 6.827z"/><path d="m12.407 24.518.083.014c2.822-1.754 4.974-4.203 6.176-7.03s1.402-5.904.571-8.83l-4.4-3.823c1.78 3.142 2.496 6.659 2.066 10.14s-1.989 6.786-4.496 9.529zM27.328 15.172c-.747 2.931-2.563 5.574-5.177 7.537a16.45 16.45 0 0 1-2.459 1.534c2.128-.543 4.085-1.504 5.718-2.809s2.9-2.917 3.703-4.714l-1.784-1.549z"/><path d="m26.628 14.741-2.541-2.207c-.049 2.517-.872 4.976-2.385 7.123s-3.66 3.902-6.217 5.084h.012c.57 0 1.139-.03 1.706-.088 2.39-.848 4.502-2.196 6.147-3.926s2.771-3.785 3.278-5.985zM12.774 3.237 9.743.6c-2.709.91-5.04 2.509-6.686 4.588S.526 9.73.517 12.254c.01 2.789 1.09 5.495 3.07 7.69s4.745 3.754 7.859 4.43c2.78-2.943 4.407-6.578 4.646-10.38s-.924-7.569-3.319-10.757zM33.631 14.335c-.011-3.309-1.529-6.479-4.221-8.818s-6.342-3.658-10.15-3.668a16.144 16.144 0 0 0-5.146.832l18.557 16.123c.635-1.425.961-2.941.96-4.469z"/></symbol><symbol id="icon-company4" viewBox="0 0 65 32"><path d="M10.016 10.049h-.002c-1.827 0-3.308 1.316-3.308 2.94v.002c0 1.624 1.481 2.94 3.308 2.94h.002c1.827 0 3.308-1.316 3.308-2.94v-.002c0-1.624-1.481-2.94-3.308-2.94zM34.434 9.11c-.005-2.255-1.015-4.417-2.81-6.012S27.398.605 24.86.6c-2.538.004-4.972.902-6.767 2.497s-2.806 3.757-2.811 6.013v12.437s19.149-1.895 19.151-12.434v-.002zM0 25.628c.005 1.569.708 3.073 1.956 4.183s2.94 1.735 4.706 1.74c1.765-.005 3.457-.63 4.705-1.739s1.952-2.613 1.957-4.182v-8.653S-.001 18.297-.001 25.629zm6.662 1.55c-.345 0-.682-.091-.969-.261s-.511-.413-.643-.696-.167-.595-.099-.896.233-.577.477-.794c.244-.217.555-.364.893-.424s.689-.029 1.008.088c.319.117.591.316.783.571s.294.555.294.861c.001.204-.044.406-.131.595s-.216.36-.378.505c-.162.145-.355.259-.567.338s-.439.119-.669.119v-.006zM18.842 24.402v3.25h-.67v-3.25h.67zm1.295 1.389v.522h-1.478v-.522h1.478zm.156-1.389v.525h-1.634v-.525h1.634zm3.058 1.55v.154c0 .247-.033.469-.1.665s-.161.364-.284.502a1.228 1.228 0 0 1-.438.315 1.392 1.392 0 0 1-.56.109c-.204 0-.391-.036-.56-.109a1.264 1.264 0 0 1-.438-.315 1.471 1.471 0 0 1-.288-.502 2.05 2.05 0 0 1-.101-.665v-.154c0-.248.034-.47.101-.665.067-.196.161-.364.283-.502.123-.138.269-.244.438-.317.17-.073.356-.109.56-.109.205 0 .392.037.56.109.17.073.316.179.438.317.123.138.219.306.286.502.068.195.103.417.103.665zm-.676.154v-.158c0-.173-.016-.324-.047-.455s-.077-.241-.138-.33a.601.601 0 0 0-.524-.27.636.636 0 0 0-.301.069.611.611 0 0 0-.221.201c-.059.089-.105.199-.136.33s-.047.283-.047.455v.158c0 .171.016.323.047.455.031.131.077.242.138.333.061.089.135.157.223.203s.188.069.301.069c.113 0 .213-.023.301-.069s.161-.114.221-.203c.059-.091.105-.202.136-.333.031-.132.047-.284.047-.455zm2.85.696a.425.425 0 0 0-.027-.156.295.295 0 0 0-.094-.13c-.046-.04-.111-.08-.194-.118s-.191-.079-.324-.121a4.161 4.161 0 0 1-.42-.161 1.688 1.688 0 0 1-.348-.208.938.938 0 0 1-.237-.279.763.763 0 0 1-.085-.368c0-.135.03-.258.089-.368a.842.842 0 0 1 .25-.286c.107-.08.234-.142.379-.185.147-.043.309-.065.484-.065.24 0 .449.043.627.129s.317.205.415.355c.1.15.15.322.15.516h-.665a.505.505 0 0 0-.06-.25.409.409 0 0 0-.179-.172.634.634 0 0 0-.299-.062.686.686 0 0 0-.29.054.386.386 0 0 0-.174.141.342.342 0 0 0-.058.196c0 .055.013.105.04.15.028.045.07.086.125.125s.123.075.203.109c.08.034.173.068.279.1.177.054.333.114.466.181.135.067.249.142.339.225s.159.178.205.284a.891.891 0 0 1 .069.359.793.793 0 0 1-.322.663 1.101 1.101 0 0 1-.373.176c-.144.04-.306.06-.484.06a1.86 1.86 0 0 1-.475-.062 1.449 1.449 0 0 1-.426-.194c-.126-.086-.228-.196-.304-.33s-.114-.292-.114-.475h.672c0 .101.016.187.047.257s.075.126.132.17a.585.585 0 0 0 .205.094c.08.019.168.029.263.029a.713.713 0 0 0 .286-.049.349.349 0 0 0 .223-.332zm2.578-2.4v3.25h-.667v-3.25h.667zm1 0v.525h-2.652v-.525h2.652zm2.563 2.728v.522h-1.73v-.522h1.73zm-1.512-2.728v3.25h-.67v-3.25h.67zm1.286 1.324v.509h-1.504v-.509h1.504zm.223-1.324v.525h-1.728v-.525h1.728zm.393 0h1.212c.249 0 .462.037.641.112.18.074.318.185.415.33s.145.325.145.538c0 .174-.03.324-.089.449a.842.842 0 0 1-.248.31c-.106.082-.23.147-.373.197l-.212.112h-1.054l-.004-.522h.783c.118 0 .215-.021.292-.062s.135-.1.174-.174a.538.538 0 0 0 .06-.259c0-.104-.019-.194-.058-.27s-.097-.134-.176-.174a.654.654 0 0 0-.297-.06h-.542v2.725h-.67v-3.25zm1.817 3.25-.741-1.449.708-.005.75 1.422v.031h-.717zm3.516-1.158h-.828v-.522h.828a.692.692 0 0 0 .313-.062c.08-.043.139-.103.176-.179s.056-.161.056-.257c0-.097-.019-.187-.056-.27s-.096-.15-.176-.201-.185-.076-.313-.076h-.596v2.725h-.67v-3.25h1.266c.254 0 .473.046.654.138.183.091.323.216.42.377s.145.344.145.551c0 .21-.048.391-.145.545s-.237.272-.42.355c-.181.083-.4.125-.654.125zm3.862.636v.522h-1.73v-.522h1.73zm-1.512-2.728v3.25h-.67v-3.25h.67zm1.286 1.324v.509h-1.504v-.509h1.504zm.223-1.324v.525H39.52v-.525h1.728zm1.891 0v3.25h-.667v-3.25h.667zm1 0v.525h-2.652v-.525h2.652zm2.562 2.728v.522h-1.73v-.522h1.73zm-1.511-2.728v3.25h-.67v-3.25h.67zm1.286 1.324v.509h-1.504v-.509h1.504zm.223-1.324v.525h-1.728v-.525h1.728zm.393 0h1.212c.249 0 .462.037.641.112.18.074.318.185.415.33s.145.325.145.538c0 .174-.03.324-.089.449a.842.842 0 0 1-.248.31c-.106.082-.23.147-.373.197l-.212.112h-1.054l-.005-.522h.784c.118 0 .215-.021.292-.062s.135-.1.174-.174a.538.538 0 0 0 .06-.259c0-.104-.019-.194-.058-.27s-.097-.134-.176-.174a.654.654 0 0 0-.297-.06h-.542v2.725h-.67v-3.25zm1.817 3.25-.741-1.449.708-.005.75 1.422v.031h-.717zm2.804-.85a.425.425 0 0 0-.027-.156.295.295 0 0 0-.094-.13c-.046-.04-.111-.08-.194-.118s-.191-.079-.324-.121a4.161 4.161 0 0 1-.42-.161 1.688 1.688 0 0 1-.348-.208.938.938 0 0 1-.237-.279.763.763 0 0 1-.085-.368c0-.135.03-.258.089-.368a.842.842 0 0 1 .25-.286c.107-.08.234-.142.379-.185.147-.043.309-.065.484-.065.24 0 .449.043.627.129s.317.205.415.355c.1.15.15.322.15.516h-.665a.505.505 0 0 0-.06-.25.409.409 0 0 0-.179-.172.634.634 0 0 0-.299-.062.686.686 0 0 0-.29.054.386.386 0 0 0-.174.141.342.342 0 0 0-.058.196c0 .055.013.105.04.15.028.045.07.086.125.125s.123.075.203.109c.08.034.173.068.279.1.177.054.333.114.467.181.135.067.249.142.339.225s.159.178.205.284a.891.891 0 0 1 .069.359.793.793 0 0 1-.322.663 1.101 1.101 0 0 1-.373.176c-.144.04-.306.06-.484.06a1.86 1.86 0 0 1-.475-.062 1.449 1.449 0 0 1-.426-.194c-.126-.086-.228-.196-.304-.33s-.114-.292-.114-.475h.672c0 .101.016.187.047.257s.075.126.132.17a.585.585 0 0 0 .205.094c.08.019.168.029.263.029a.713.713 0 0 0 .286-.049.349.349 0 0 0 .223-.332z"/></symbol><symbol id="icon-company5" viewBox="0 0 43 32"><path d="M3.239 26.432a.98.98 0 0 1 .25.665c.008.158-.022.315-.089.46s-.169.275-.298.38a1.788 1.788 0 0 1-1.125.307H0v-4.215h1.937c.382-.023.761.076 1.073.28.125.096.224.217.289.354s.095.286.086.435a.923.923 0 0 1-.225.645 1.06 1.06 0 0 1-.589.329c.262.044.499.172.668.36zM.92 25.796h.828a.835.835 0 0 0 .526-.14c.062-.052.111-.116.141-.187s.043-.148.036-.225c.006-.076-.007-.153-.037-.224s-.078-.135-.138-.188a.858.858 0 0 0-.542-.142H.92v1.106zm1.435 1.616c.066-.053.119-.119.153-.193s.049-.155.043-.235c.005-.081-.01-.163-.045-.238s-.088-.142-.155-.195a.907.907 0 0 0-.562-.152H.921v1.159H1.8a.93.93 0 0 0 .556-.146zM7.197 28.244 6.12 26.596h-.405v1.648h-.927v-4.215h1.754c.442-.028.879.1 1.221.358.245.229.393.53.417.85s-.078.637-.287.894a1.46 1.46 0 0 1-.837.428l1.147 1.685H7.195zm-1.482-2.222h.758c.526 0 .789-.213.789-.638a.586.586 0 0 0-.193-.473.87.87 0 0 0-.596-.171h-.767l.009 1.283zM12.262 27.396h-1.847l-.326.848h-.972l1.696-4.168h1.05l1.689 4.168h-.972l-.319-.848zm-.247-.639-.675-1.779-.675 1.779h1.349zM18.602 28.244h-.92l-2.062-2.867v2.867h-.918v-4.215h.918l2.062 2.883v-2.883h.92v4.215zM23.852 27.235c-.19.318-.48.577-.832.743-.4.185-.845.276-1.293.266H20.09v-4.215h1.637c.448-.011.891.078 1.293.259.352.163.642.419.832.735.189.343.288.722.288 1.106s-.099.763-.288 1.106zm-1.053-.101c.263-.28.407-.637.407-1.006s-.144-.726-.407-1.006a1.692 1.692 0 0 0-1.152-.358h-.639v2.729h.639a1.7 1.7 0 0 0 1.152-.358zM12.838.581s11.873 4.104 11.621 10.043v10.045s-11.864-4.106-11.617-10.045L12.837.581zM35.037 18.318c2.242-1.413 4.836-2.288 7.544-2.545v-3.145c-3.12 1.101-5.766 3.097-7.544 5.69z"/><path d="M33.69 19.266c1.835-3.384 5.017-5.995 8.891-7.296V2.909S25.672 8.755 26.03 17.213v14.302s.753-.262 1.939-.752c0-.457 0-.918.054-1.382.35-3.926 2.389-7.565 5.668-10.115z"/><path d="M32.081 24.579a13.62 13.62 0 0 1 .592-2.928c-2.042 2.203-3.278 4.936-3.536 7.815-.025.272-.038.544-.045.824a50.77 50.77 0 0 0 3.252-1.569 13.564 13.564 0 0 1-.263-4.141zM32.754 24.63a12.973 12.973 0 0 0 .209 3.75c4.62-2.531 9.811-6.442 9.611-11.168V16.8c-3.301.338-6.389 1.659-8.79 3.76a13.125 13.125 0 0 0-1.03 4.069z"/></symbol><symbol id="icon-company6" viewBox="0 0 67 32"><path d="M33.724 15.285a2.095 2.095 0 0 1-.43-1.414v-2.05c0-.628.142-1.106.428-1.433s.775-.489 1.469-.488c.652 0 1.115.139 1.389.417.299.355.444.789.411 1.226v.482h-1.167v-.488a2.476 2.476 0 0 0-.034-.478.467.467 0 0 0-.167-.284.675.675 0 0 0-.423-.111.711.711 0 0 0-.444.117.544.544 0 0 0-.193.313 2.398 2.398 0 0 0-.046.507v2.488c-.018.24.033.48.15.699.058.074.139.133.233.169s.198.05.301.039a.632.632 0 0 0 .413-.113.505.505 0 0 0 .174-.302c.027-.165.039-.332.036-.498v-.505h1.167v.461c.033.456-.109.909-.403 1.289-.268.304-.725.457-1.396.457s-1.179-.163-1.466-.501zM38.583 15.306c-.295-.319-.442-.784-.442-1.399V11.75c0-.609.147-1.07.442-1.383s.788-.469 1.478-.467c.686 0 1.177.156 1.471.467.295.313.444.774.444 1.383v2.157c0 .609-.15 1.076-.449 1.397s-.788.482-1.466.482c-.679 0-1.181-.163-1.478-.48zm2.022-.517c.106-.2.154-.419.14-.638v-2.64a1.17 1.17 0 0 0-.138-.626c-.059-.076-.142-.135-.238-.172s-.203-.05-.308-.037c-.105-.013-.212 0-.308.037s-.18.096-.24.172a1.15 1.15 0 0 0-.14.626v2.653c-.015.219.033.439.14.638.068.067.152.121.246.158a.82.82 0 0 0 .6 0 .732.732 0 0 0 .246-.158v-.012zM43.38 9.963h1.256l.945 3.979.966-3.979h1.222l.123 5.743h-.904l-.097-3.992-.932 3.992h-.725l-.966-4.006-.089 4.006h-.913l.114-5.743zM49.301 9.963h1.957c1.127 0 1.691.544 1.691 1.631 0 1.041-.593 1.561-1.78 1.56h-.667v2.553h-1.208l.007-5.743zm1.672 2.455c.119.013.24.004.355-.028s.22-.084.309-.154a.928.928 0 0 0 .174-.649 1.801 1.801 0 0 0-.058-.521c-.017-.057-.047-.111-.089-.158s-.093-.086-.153-.116a1.262 1.262 0 0 0-.539-.092h-.469v1.716h.469zM54.691 9.963h1.297l1.331 5.743h-1.126l-.263-1.324h-1.157l-.271 1.324h-1.143l1.331-5.743zm1.109 3.754-.452-2.411-.452 2.411h.903zM58.395 9.963h.846l1.619 3.276V9.963h1.003v5.743h-.804l-1.628-3.42v3.42h-1.036l.002-5.743zM64.209 13.517l-1.346-3.545h1.133l.821 2.277.771-2.277h1.109l-1.329 3.545v2.19h-1.16v-2.19zM35.589 18.218v.3h-.986v2.334h-.413v-2.334h-.99v-.3h2.389zM38.679 20.852h-.319a.139.139 0 0 1-.089-.025.133.133 0 0 1-.053-.06l-.285-.626h-1.367l-.285.626a.172.172 0 0 1-.044.071.152.152 0 0 1-.089.025h-.319l1.208-2.634h.42l1.222 2.624zm-2-.978h1.14l-.483-1.072a1.75 1.75 0 0 1-.089-.248c-.017.05-.031.098-.046.14l-.044.11-.478 1.07zM40.762 20.593c.076.003.151.003.227 0 .065-.006.13-.016.193-.031.059-.012.117-.029.174-.048.053-.019.106-.042.162-.065v-.592h-.483c-.012.001-.024-.001-.035-.005s-.021-.009-.03-.016a.062.062 0 0 1-.024-.048v-.202h.937v1.01a1.842 1.842 0 0 1-.51.215c-.099.025-.2.043-.302.054a3.775 3.775 0 0 1-.353.017 1.842 1.842 0 0 1-.609-.098 1.485 1.485 0 0 1-.483-.275 1.293 1.293 0 0 1-.312-.417 1.316 1.316 0 0 1-.111-.547 1.352 1.352 0 0 1 .109-.551c.069-.156.176-.298.312-.417.138-.119.302-.212.483-.273.207-.067.426-.1.647-.098.112 0 .225.008.336.023a1.65 1.65 0 0 1 .53.171c.074.041.144.087.21.138l-.116.163c-.009.015-.023.027-.039.036s-.036.014-.055.014a.16.16 0 0 1-.075-.021 1.582 1.582 0 0 1-.118-.063 1.02 1.02 0 0 0-.162-.071 1.508 1.508 0 0 0-.529-.081 1.407 1.407 0 0 0-.466.073.923.923 0 0 0-.58.536 1.23 1.23 0 0 0 0 .878.938.938 0 0 0 .242.332c.099.09.219.162.353.209.154.046.316.063.478.052zM44.612 20.551h1.319v.3h-1.722v-2.634h.413l-.01 2.334zM47.304 20.852h-.413v-2.634h.413v2.634zM48.84 18.23a.189.189 0 0 1 .063.048l1.766 1.986a.737.737 0 0 1 0-.094v-1.962h.36v2.645h-.208a.19.19 0 0 1-.089-.015.23.23 0 0 1-.065-.05l-1.764-1.983v2.048h-.345v-2.634h.215c.023 0 .046.004.068.012zM54.07 18.218v.29h-1.464v.87h1.186v.279h-1.186v.899h1.464v.29h-1.889v-2.628h1.889zM10.782 1.95l18.343 4.497v15.757l-18.343-4.495V1.95zM9.605.607v17.867l20.694 5.074V5.683L9.605.607z"/><path d="M20.696 31.843 0 26.765V8.899l20.696 5.076v17.868z"/><path d="m9.948 1.748 18.104 4.44-7.699 6.649L2.247 8.395l7.702-6.647zM9.605.607 0 8.899l20.696 5.076 9.603-8.292L9.605.607zM21.861 30.838l8.438-7.287-8.438-2.071v9.358z"/></symbol><symbol id="icon-instagram" viewBox="0 0 32 32"><path d="M31.969 9.408c-.075-1.7-.35-2.869-.744-3.882a7.806 7.806 0 0 0-1.851-2.838A7.867 7.867 0 0 0 26.542.844C25.523.45 24.36.175 22.66.1 20.947.019 20.403 0 16.059 0s-4.888.019-6.595.094c-1.7.075-2.869.35-3.882.744a7.803 7.803 0 0 0-2.838 1.85A7.867 7.867 0 0 0 .9 5.52C.506 6.539.231 7.702.156 9.402c-.081 1.713-.1 2.257-.1 6.601s.019 4.888.094 6.595c.075 1.7.35 2.869.744 3.882a7.895 7.895 0 0 0 1.85 2.838 7.867 7.867 0 0 0 2.832 1.844c1.019.394 2.182.669 3.882.744 1.706.075 2.25.094 6.595.094s4.888-.019 6.595-.094c1.7-.075 2.869-.35 3.882-.744a8.184 8.184 0 0 0 4.682-4.682c.394-1.019.669-2.182.744-3.882.075-1.707.094-2.251.094-6.595s-.006-4.888-.081-6.595zm-2.882 13.065c-.069 1.563-.331 2.407-.55 2.969a5.31 5.31 0 0 1-3.038 3.038c-.563.219-1.413.481-2.969.55-1.688.075-2.194.094-6.464.094s-4.782-.019-6.464-.094c-1.563-.069-2.407-.331-2.969-.55a4.926 4.926 0 0 1-1.838-1.194 4.974 4.974 0 0 1-1.194-1.838c-.219-.563-.481-1.413-.55-2.969-.075-1.688-.094-2.194-.094-6.464s.019-4.782.094-6.464c.069-1.563.331-2.407.55-2.969a4.868 4.868 0 0 1 1.2-1.838A4.974 4.974 0 0 1 6.639 3.55c.563-.219 1.413-.481 2.969-.55 1.688-.075 2.194-.094 6.464-.094 4.276 0 4.782.019 6.464.094 1.563.069 2.407.331 2.969.55a4.914 4.914 0 0 1 1.838 1.194 4.974 4.974 0 0 1 1.194 1.838c.219.563.481 1.413.55 2.969.075 1.688.094 2.194.094 6.464s-.019 4.77-.094 6.458z"/><path d="M16.059 7.783c-4.538 0-8.22 3.682-8.22 8.22s3.682 8.22 8.22 8.22c4.539 0 8.22-3.682 8.22-8.22s-3.682-8.22-8.22-8.22zm0 13.552a5.333 5.333 0 0 1 0-10.664 5.333 5.333 0 0 1 0 10.664zM26.524 7.458a1.919 1.919 0 1 1-3.838 0 1.919 1.919 0 0 1 3.838 0z"/></symbol><symbol id="icon-linkedin" viewBox="0 0 32 32"><path d="M31.992 32v-.001H32V20.263c0-5.741-1.236-10.164-7.948-10.164-3.227 0-5.392 1.771-6.276 3.449h-.093v-2.913h-6.364v21.364h6.627V21.42c0-2.785.528-5.479 3.977-5.479 3.399 0 3.449 3.179 3.449 5.657v10.401h6.62zM.528 10.636h6.635V32H.528V10.636zM3.843 0C1.722 0 0 1.721 0 3.843s1.721 3.879 3.843 3.879c2.121 0 3.843-1.757 3.843-3.879A3.846 3.846 0 0 0 3.843 0z"/></symbol><symbol id="icon-smartphone" viewBox="0 0 20 32"><path d="M17 0H3C1.346 0 0 1.346 0 3v26c0 1.654 1.346 3 3 3h14c1.654 0 3-1.346 3-3V3c0-1.654-1.346-3-3-3zM3 2h14a1 1 0 0 1 1 1v21H2V3a1 1 0 0 1 1-1zm14 28H3a1 1 0 0 1-1-1v-3h16v3a1 1 0 0 1-1 1z"/><path d="M4.707 27.478c.391.365.391.956 0 1.321s-1.024.365-1.414 0c-.391-.365-.391-.956 0-1.321s1.024-.365 1.414 0z"/></symbol><symbol id="icon-sobre" viewBox="0 0 43 32"><path d="M38.667 0H4C1.794 0 0 1.794 0 4v24c0 2.206 1.794 4 4 4h34.667c2.206 0 4-1.794 4-4V4c0-2.206-1.794-4-4-4zm0 2.667c.181 0 .353.038.511.103L21.334 18.236 3.49 2.77a1.32 1.32 0 0 1 .511-.103h34.667zm0 26.666H4A1.334 1.334 0 0 1 2.667 28V5.587L20.46 21.008a1.335 1.335 0 0 0 1.748 0L40.001 5.587V28c0 .736-.598 1.333-1.333 1.333z"/></symbol><symbol id="icon-twitter" viewBox="0 0 32 32"><path d="M32 6.078c-1.19.522-2.458.868-3.78 1.036a6.523 6.523 0 0 0 2.886-3.626 13.11 13.11 0 0 1-4.16 1.588A6.574 6.574 0 0 0 22.154 3c-3.632 0-6.556 2.948-6.556 6.562 0 .52.044 1.02.152 1.496-5.454-.266-10.28-2.88-13.522-6.862a6.605 6.605 0 0 0-.898 3.316 6.57 6.57 0 0 0 2.914 5.452 6.479 6.479 0 0 1-2.964-.808v.072c0 3.188 2.274 5.836 5.256 6.446a6.548 6.548 0 0 1-1.72.216 5.8 5.8 0 0 1-1.242-.112c.85 2.598 3.262 4.508 6.13 4.57a13.182 13.182 0 0 1-8.134 2.798c-.538 0-1.054-.024-1.57-.09A18.469 18.469 0 0 0 10.064 29c12.072 0 18.672-10 18.672-18.668 0-.29-.01-.57-.024-.848A13.087 13.087 0 0 0 32 6.078z"/></symbol></defs></svg>